<svg width="22" height="22" viewBox="0 0 22 22" fill="none" xmlns="http://www.w3.org/2000/svg">
<path d="M19.2015 7.61276C19.1922 6.91849 19.0623 6.23113 18.8174 5.58142C18.6051 5.03339 18.2807 4.53569 17.8651 4.1201C17.4495 3.70451 16.9518 3.38019 16.4038 3.16784C15.7625 2.92708 15.0849 2.7969 14.4 2.78284C13.5181 2.74342 13.2386 2.73242 11.0001 2.73242C8.76156 2.73242 8.47465 2.73242 7.59923 2.78284C6.91463 2.797 6.23738 2.92718 5.59631 3.16784C5.0482 3.38004 4.55042 3.70431 4.13481 4.11992C3.71921 4.53552 3.39493 5.03331 3.18273 5.58142C2.94149 6.22229 2.81159 6.89969 2.79865 7.58434C2.75923 8.46709 2.74731 8.74667 2.74731 10.9852C2.74731 13.2237 2.74731 13.5097 2.79865 14.386C2.8124 15.0717 2.94165 15.7482 3.18273 16.3908C3.39529 16.9387 3.7198 17.4363 4.13555 17.8517C4.55129 18.2671 5.04912 18.5913 5.59723 18.8034C6.23655 19.0539 6.91391 19.1934 7.60015 19.2159C8.4829 19.2553 8.76248 19.2673 11.001 19.2673C13.2395 19.2673 13.5264 19.2673 14.4018 19.2159C15.0867 19.2024 15.7643 19.0726 16.4056 18.8318C16.9535 18.6192 17.4511 18.2948 17.8667 17.8793C18.2822 17.4637 18.6066 16.9661 18.8192 16.4183C19.0603 15.7766 19.1896 15.1001 19.2033 14.4135C19.2427 13.5317 19.2546 13.2521 19.2546 11.0127C19.2528 8.77417 19.2528 8.49001 19.2015 7.61276ZM10.9946 15.2183C8.6534 15.2183 6.75681 13.3218 6.75681 10.9806C6.75681 8.63942 8.6534 6.74284 10.9946 6.74284C12.1185 6.74284 13.1964 7.18931 13.9911 7.98405C14.7858 8.77878 15.2323 9.85667 15.2323 10.9806C15.2323 12.1045 14.7858 13.1824 13.9911 13.9771C13.1964 14.7719 12.1185 15.2183 10.9946 15.2183ZM15.401 7.57425C15.2712 7.57438 15.1426 7.5489 15.0227 7.49928C14.9027 7.44966 14.7938 7.37688 14.702 7.2851C14.6102 7.19331 14.5374 7.08433 14.4878 6.96439C14.4382 6.84444 14.4127 6.71589 14.4128 6.58609C14.4128 6.45638 14.4384 6.32794 14.488 6.20811C14.5376 6.08827 14.6104 5.97939 14.7021 5.88767C14.7938 5.79596 14.9027 5.7232 15.0225 5.67357C15.1424 5.62393 15.2708 5.59838 15.4005 5.59838C15.5302 5.59838 15.6587 5.62393 15.7785 5.67357C15.8983 5.7232 16.0072 5.79596 16.0989 5.88767C16.1907 5.97939 16.2634 6.08827 16.313 6.20811C16.3627 6.32794 16.3882 6.45638 16.3882 6.58609C16.3882 7.13242 15.9464 7.57425 15.401 7.57425Z" fill="#DA1F39"/>
<path d="M10.9944 13.7335C12.5148 13.7335 13.7472 12.5011 13.7472 10.9808C13.7472 9.46048 12.5148 8.22803 10.9944 8.22803C9.47415 8.22803 8.2417 9.46048 8.2417 10.9808C8.2417 12.5011 9.47415 13.7335 10.9944 13.7335Z" fill="#DA1F39"/>
</svg>
