<svg width="22" height="22" viewBox="0 0 22 22" fill="none" xmlns="http://www.w3.org/2000/svg">
<path d="M17.4635 12.0938H8.71692C9.34162 11.8099 10.0185 11.5963 10.7173 11.3784C11.9816 10.9845 13.2829 10.5762 14.3413 9.68649H17.4635C17.7167 9.68649 17.9219 9.48132 17.9219 9.22816C17.9219 8.975 17.7167 8.76982 17.4635 8.76982H15.1649C15.7076 7.91981 15.8415 6.87728 15.5131 5.81322C15.0276 4.23985 13.639 2.92464 12.1361 2.61491C10.7409 2.32702 9.18525 2.64141 7.97676 3.45531C6.91973 4.16716 6.21916 5.20199 6.00378 6.36966C5.95794 6.61852 6.12248 6.85772 6.37152 6.90355C6.62002 6.94795 6.85939 6.78503 6.9054 6.53581C7.07549 5.6127 7.63784 4.78877 8.4888 4.21585C9.49714 3.53659 10.7903 3.27233 11.9514 3.51296C13.1412 3.75788 14.2459 4.81527 14.6373 6.08356C14.8142 6.65648 14.9771 7.7554 14.083 8.67923C14.0515 8.71173 14.0167 8.73858 13.9845 8.76982H4.53621C4.28306 8.76982 4.07788 8.975 4.07788 9.22816C4.07788 9.48132 4.28306 9.68649 4.53621 9.68649H12.6534C11.9728 10.0223 11.2222 10.2608 10.4446 10.5033C9.22999 10.8819 7.97994 11.2741 6.94023 12.0938H4.53621C4.28306 12.0938 4.07788 12.299 4.07788 12.5521C4.07788 12.8053 4.28306 13.0105 4.53621 13.0105H6.07427C5.34497 14.1403 5.32487 15.7018 6.08506 17.051C7.06886 18.7966 8.97936 19.488 10.8127 19.488C11.4501 19.488 12.0781 19.4046 12.6546 19.2528C15.0695 18.6165 16.5669 16.9253 16.563 14.8395C16.5626 14.5864 16.3575 14.3819 16.1047 14.3819C16.1043 14.3819 16.1039 14.3819 16.1039 14.3819C15.8508 14.3823 15.646 14.5882 15.6463 14.8409C15.6503 16.8129 13.9827 17.9548 12.4212 18.3662C10.4553 18.8836 7.92215 18.4439 6.88356 16.6012C6.31494 15.5918 6.16616 14.0629 7.18345 13.0918C7.21391 13.0627 7.24727 13.0385 7.27836 13.0105H17.4635C17.7167 13.0105 17.9219 12.8053 17.9219 12.5521C17.9219 12.299 17.7167 12.0938 17.4635 12.0938Z" fill="#1D1C1A"/>
</svg>
