<svg width="22" height="22" viewBox="0 0 22 22" fill="none" xmlns="http://www.w3.org/2000/svg">
<path d="M2.35718 7.95471L10.7282 12.3084C10.8121 12.352 10.9054 12.3748 11 12.3748C11.0947 12.3748 11.1879 12.352 11.2719 12.3084L19.6429 7.9555V15.518C19.6429 16.1702 19.3934 16.7978 18.9454 17.2719C18.4975 17.746 17.8851 18.0307 17.2339 18.0676L17.0893 18.0716H4.91075C4.2585 18.0716 3.63096 17.8221 3.15685 17.3741C2.68275 16.9262 2.39803 16.3138 2.36111 15.6626L2.35718 15.518V7.95471ZM4.91075 3.92871H17.0893C17.7416 3.92867 18.3691 4.17822 18.8432 4.62617C19.3173 5.07412 19.602 5.68651 19.639 6.33771L19.6429 6.48228V6.62685L11 11.1211L2.35718 6.62685V6.48228C2.35714 5.83003 2.60668 5.20249 3.05463 4.72839C3.50258 4.25429 4.11497 3.96957 4.76618 3.93264L4.91075 3.92871H17.0893H4.91075Z" fill="#DA1F39"/>
</svg>
